PathFileType	4	(X/Y/Z)	\\Move.snu.ac.kr\motion\Animal\091204_091205_Bird\091205_bird\Project 2\Capture day 2\Session 1\pigeon_008.trc
DataRate	CameraRate	NumFrames	NumMarkers	Units	OrigDataRate	OrigDataStartFrame	OrigNumFrames
240.0	240.0	11	14	mm	240.0	202	3164
Frame#	Time	14MarkersBird:Head			14MarkersBird:C_back			14MarkersBird:Spine			14MarkersBird:L-shoulder			14MarkersBird:L-elbow			14MarkersBird:L-wrist			14MarkersBird:L-hand			14MarkersBird:R-shoulder			14MarkersBird:R-elbow			14MarkersBird:R-Wrist			14MarkersBird:R-hand			14MarkersBird:C_Tail			14MarkersBird:L-Tale			14MarkersBird:R-Tale			
		X1	Y1	Z1	X2	Y2	Z2	X3	Y3	Z3	X4	Y4	Z4	X5	Y5	Z5	X6	Y6	Z6	X7	Y7	Z7	X8	Y8	Z8	X9	Y9	Z9	X10	Y10	Z10	X11	Y11	Z11	X12	Y12	Z12	X13	Y13	Z13	X14	Y14	Z14	

2246	9.354	539.25098	345.27264	2020.61755	478.65054	344.83856	2010.83032	424.59091	335.40027	2011.22876	509.80316	334.75327	1992.28406	493.05377	317.10620	1969.30225	533.81378	304.37094	1975.05017	551.02722	283.65656	1979.48108	509.70459	337.17014	2041.21680	497.29947	330.54727	2060.52808	533.91138	313.02338	2056.34351	558.76996	284.54987	2062.21460	328.99188	255.45680	2008.23804	394.50073	270.63788	1930.27405	374.49313	291.25098	2105.75366	
2247	9.358	551.94067	343.06479	2020.63794	491.85205	343.61658	2011.25037	437.77502	334.41541	2011.28540	522.54376	333.38916	1992.53516	502.05548	317.74759	1969.43542	544.30603	309.90475	1974.63647	561.82965	290.31128	1982.49512	522.37445	336.35083	2041.21631	506.49200	332.05432	2061.11426	544.58435	319.46301	2055.43286	570.15717	290.10739	2057.48193	340.60889	256.17401	2012.29504	404.77011	266.60397	1933.42932	386.96204	291.85385	2106.64893	
2248	9.363	564.79572	340.79605	2020.77747	505.36017	341.91937	2011.84644	451.03918	333.32309	2011.55713	535.34363	331.72964	1992.94409	510.76181	320.46381	1969.55798	553.91235	316.16364	1971.51099	571.41022	296.79797	1979.55713	535.33472	334.98648	2040.83887	514.96661	335.14771	2061.12354	554.22296	326.96637	2057.06396	579.78973	297.39407	2058.91528	352.88434	256.22699	2015.90637	415.47247	262.96365	1936.41492	400.46719	291.78235	2107.79272	
2249	9.367	577.80103	338.38419	2020.93188	519.06647	339.76544	2012.56653	464.13879	332.19617	2012.17468	548.21399	329.74017	1993.47607	519.61108	324.67764	1970.67029	562.82587	322.82416	1967.24011	579.32068	302.20758	1972.18555	548.31543	333.45731	2040.42383	523.24176	339.19113	2059.42285	563.46826	335.21207	2059.82397	587.31793	305.38892	2065.31714	365.64111	255.57655	2018.88403	426.53046	259.82944	1939.02808	414.57169	291.50711	2109.09790	
2250	9.371	590.91187	335.79507	2021.05530	532.83197	337.27597	2013.36169	476.99646	331.06122	2013.07849	561.20135	327.53424	1994.06201	529.08105	329.44656	1973.53113	571.17175	329.92017	1963.48657	584.67120	307.28140	1962.55847	561.19043	332.01953	2039.87244	532.09039	343.28650	2055.29077	572.53827	343.94250	2062.20020	592.23560	314.24298	2074.65186	378.71362	254.26578	2021.10181	437.95221	257.39471	1940.97437	428.79697	291.54230	2110.49609	
2251	9.375	604.01996	333.12134	2021.22205	546.51318	334.60376	2014.23596	489.66943	329.93259	2014.13330	574.34003	325.28760	1994.63782	539.51880	333.79434	1978.23157	579.17316	337.41519	1961.56079	586.92889	313.65479	1953.22705	573.93073	330.74435	2038.95972	542.25653	346.53699	2048.95215	581.30676	352.48114	2062.92603	594.39801	324.98193	2084.07275	391.92450	252.45656	2022.50781	449.92007	255.77766	1941.96289	442.80383	292.21835	2111.94336	
2252	9.379	617.07745	330.46539	2021.48267	560.00049	331.85443	2015.17456	502.22900	328.81665	2015.22107	587.58087	323.09415	1995.19141	551.00360	336.93042	1984.19946	587.30670	344.88293	1962.10437	586.98383	322.67206	1946.66638	586.70032	329.40201	2037.63953	554.06427	348.44333	2041.59680	589.98163	360.01242	2061.32080	594.43256	338.40829	2090.48901	405.05609	250.37857	2023.15601	462.74893	254.90807	1941.80859	456.49274	293.54239	2113.37720	
2253	9.383	630.11664	327.84937	2021.82141	573.23114	329.09869	2016.06360	514.71246	327.71448	2016.29773	600.74561	320.88678	1995.77051	563.37872	338.41016	1990.44055	596.11963	351.56659	1964.87109	587.08514	334.43973	1944.44690	599.54193	327.61856	2036.34277	567.36749	349.06851	2034.64917	599.07867	365.93094	2057.65894	593.75952	354.08868	2091.53809	417.92316	248.21663	2023.17175	476.67914	254.59488	1940.53479	469.95285	295.29709	2114.70239	
2254	9.387	643.18719	325.22653	2022.19751	586.17322	326.38660	2016.76147	527.13385	326.62082	2017.35156	613.64832	318.48871	1996.41772	576.55988	338.36389	1995.86328	605.92944	356.86597	1968.71838	589.48041	347.84070	1946.68298	612.39160	325.27884	2035.56470	581.84088	348.86758	2028.96289	609.00031	370.19666	2053.02466	594.28302	370.40976	2086.38965	430.43494	246.07016	2022.64490	491.73209	254.62929	1938.37781	483.33334	297.21396	2115.81860	
2255	9.392	656.29016	322.52502	2022.54285	598.83557	323.73972	2017.20496	539.50568	325.52655	2018.37830	626.26764	315.78442	1997.06946	590.61438	337.31525	1999.53113	616.75830	360.63699	1972.13379	595.47491	361.16028	1952.23425	625.25128	322.60144	2035.41016	597.00110	348.27591	2024.85083	619.70483	373.19315	2048.73291	597.74274	385.30914	2076.25317	442.60800	243.95396	2021.60718	507.60983	254.88838	1935.81250	496.77493	299.05023	2116.74878	
2256	9.396	669.34619	319.73734	2022.76550	611.26190	321.16153	2017.40076	551.84332	324.42105	2019.37402	638.77069	312.88934	1997.54272	605.61322	335.93503	2001.03442	628.45264	362.83719	1973.78345	605.45081	372.57816	1958.99414	638.14655	319.82382	2035.75842	612.13776	347.48792	2022.49829	630.98236	375.20862	2045.92822	605.13129	397.19321	2064.34619	454.49634	241.90303	2020.07813	523.75836	255.31931	1933.35547	510.39609	300.47934	2117.62451	
